PathFileType	4	(X/Y/Z)	Patient4_TMGait_0pt7_01_left_40.trc.trc
DataRate	CameraRate	NumFrames	NumMarkers	Units	OrigDataRate	OrigDataStartFrame	OrigNumFrames
84.848484848485	84.848484848485	4	33	mm	84.848484848485	18	       141
Frame#	Time	Sacral			L.Shoulder			Chest			R.Shoulder			Neck			R.ASIS			L.ASIS			R.Thigh.Superior			R.Thigh.Lateral			R.Thigh.Inferior			R.Patella			L.Thigh.Superior			L.Thigh.Lateral			L.Thigh.Inferior			L.Patella			L.Shank.Superior			L.Shank.Lateral			L.Shank.Inferior			R.Shank.Superior			R.Shank.Lateral			R.Shank.Inferior			R.Heel			R.Midfoot.Superior			R.Midfoot.Lateral			R.Toe			L.Heel			L.Midfoot.Lateral			L.Midfoot.Superior			L.Toe			L.Elbow			L.Wrist			R.Elbow			R.Wrist			
		X1	Y1	Z1	X2	Y2	Z2	X3	Y3	Z3	X4	Y4	Z4	X5	Y5	Z5	X6	Y6	Z6	X7	Y7	Z7	X8	Y8	Z8	X9	Y9	Z9	X10	Y10	Z10	X11	Y11	Z11	X12	Y12	Z12	X13	Y13	Z13	X14	Y14	Z14	X15	Y15	Z15	X16	Y16	Z16	X17	Y17	Z17	X18	Y18	Z18	X19	Y19	Z19	X20	Y20	Z20	X21	Y21	Z21	X22	Y22	Z22	X23	Y23	Z23	X24	Y24	Z24	X25	Y25	Z25	X26	Y26	Z26	X27	Y27	Z27	X28	Y28	Z28	X29	Y29	Z29	X30	Y30	Z30	X31	Y31	Z31	X32	Y32	Z32	X33	Y33	Z33	

18	46.490357142857	853.814284228068	1014.327622430652	486.317927822777	1044.535280178912	1419.773085686803	276.877166448330	1160.375108057179	1343.102588935219	426.679153374545	1108.091263763148	1433.067223626268	604.795093726848	1070.845960347704	1485.313685414347	428.966224545704	1079.931772433554	936.922733562160	590.556673076323	1053.616922180208	952.333763855533	316.319035109091	1076.018353074470	724.420261431670	562.507190799613	972.275476849948	631.694463995188	623.516800442892	1031.489218151737	566.406001425633	541.839641126281	1012.980541275971	482.519492118405	545.018142326333	1135.056580272832	788.156600930084	357.202205536642	1111.652594897824	661.225342124174	267.150358884878	1211.498589407063	607.234444562098	339.567113033487	1246.443425395687	540.831930289556	331.227798951842	1226.861572721919	464.901141609483	317.879446434458	1160.325549005356	339.064791085704	256.246331788517	1238.709430250014	234.496321965982	314.276725279229	976.342119960007	398.635778722164	550.439686982927	895.370036461308	302.633064453509	611.706899059194	924.094802329578	204.945364247662	545.105127577828	773.359046621602	47.325445559782	516.815474538002	947.181894972634	96.696831522956	548.765983479958	857.965608543209	38.921228575100	588.474176187725	1066.002990166116	38.759128210702	575.025574043401	1148.517261882756	53.528154698404	339.191719665014	1229.037342211811	60.118478076360	265.842792302794	1297.708504899822	137.542045921053	294.460524586587	1433.828693002561	108.217611615620	279.142961413212	886.753461759399	1101.472094331056	189.324347330134	844.332725171136	844.745552320736	199.927826332625	1240.305724190091	1130.503614698036	727.212281183270	1438.581778267259	1226.435674330204	610.742584539860	
19	46.502142857143	853.973630197239	1012.032156994806	484.608674963034	1043.585266335936	1418.275395123317	275.688205586909	1159.668470968046	1341.489751205229	425.227082417140	1107.383597765010	1431.166058617682	603.421273431295	1069.873044284581	1483.540460453844	427.846669708637	1080.240834493057	935.022783923504	588.867599799512	1053.873181440625	950.061784315210	314.515254936845	1074.866615394725	722.322295413446	561.310366334534	970.142417037009	630.272126038229	622.369369865237	1028.714598026912	564.489060591255	540.782275944946	1009.236253165242	480.513770191828	543.849384383536	1133.947580277053	783.963996846491	355.315513358682	1108.358109713137	656.876995023231	265.910632843492	1208.030342988368	602.485288685328	338.080964170275	1242.480560726555	537.059231085541	330.276354963610	1224.315148577809	461.559151442947	316.996879207519	1160.024709717859	333.828755938196	257.064861604928	1241.466463562456	231.438769519560	314.970722396110	971.748041520915	396.866069790335	549.465329598642	889.847107294979	301.844579332674	611.261103826445	917.009196279296	203.794234840886	544.612945946279	764.939266314499	46.830150143616	516.876230698962	938.678911744060	96.514831733997	548.729937006535	849.551050668128	38.616277836581	588.563222422199	1057.611528770505	38.775692413747	575.036270209141	1155.632802468603	49.062638801620	342.133745178005	1235.329447219142	56.501639094240	268.000836939230	1302.857416908041	135.200079944180	295.465897183460	1439.378264316908	108.062347721451	279.140398540928	881.022103837742	1102.988109200999	188.773646596594	834.633816591436	846.869553157212	200.173226029826	1246.659170760978	1132.539287079228	724.360036268186	1439.301177967849	1236.706894275144	606.108325974604	
20	46.513928571429	854.390288015763	1009.533485847284	482.691174201412	1042.612181903100	1416.675676809911	274.285005548362	1158.908159258467	1339.966859188963	423.680891062677	1106.369392100526	1429.295725260464	601.929454943058	1068.758331034092	1481.751751902066	426.525980131120	1080.813100303032	933.093053071039	587.120339077991	1054.448068584373	947.698555487642	312.652362786428	1074.186639336978	720.195032427677	560.004852477037	968.509997237777	628.782287940663	621.111042703916	1026.508054353481	562.498494317919	539.649291435804	1006.013205083881	478.376060392063	542.576513855342	1133.388108853085	779.759654692355	353.128748346417	1105.124159336840	652.378115953963	264.859041958252	1205.015899478876	597.739848047824	336.247806469969	1238.646759326198	532.864240091174	329.106650358378	1221.434617294649	457.702992870747	316.063462756843	1158.188604471449	328.693475443579	258.275476625632	1241.964099643329	227.983417964011	315.841360470093	967.595263631392	394.992347828707	548.427021914522	884.644580728436	301.076611288191	610.787393109861	910.106136054668	202.636057197405	544.125129120225	756.542384227460	46.471395088496	516.961848873885	930.214694292610	96.353263886044	548.692741649793	841.160004230036	38.379522956041	588.680709650162	1049.239107026696	38.757513628282	575.062903670701	1158.902278539221	45.513773464230	345.637055781989	1237.510147689819	52.993088711738	270.431572895593	1304.812466613078	131.987123002378	296.596577658327	1441.203186427133	105.487854831908	278.742595530908	876.074987434512	1104.005642514006	188.178487895567	825.850246604208	848.534489011356	200.240941295923	1252.093733972536	1134.333353824136	721.398694971094	1439.413322637697	1245.767732859431	601.744402742780	
21	46.525714285714	855.054093168852	1006.934182544078	480.593929478766	1041.624785360401	1415.027464668116	272.667648101143	1158.123902555177	1338.584816491549	422.022978403355	1105.114922130450	1427.509613394792	600.313504020304	1067.533703841466	1480.004492130858	424.995136181112	1081.634799499072	931.171803604303	585.302017541295	1055.316733492515	945.335053767843	310.731603342917	1073.929642330075	718.068993549052	558.579846757507	967.334443142705	627.261952265395	619.739803872720	1024.826196064675	560.461908851919	538.440503137771	1003.283418101622	476.130408516507	541.209915555097	1133.376554566075	775.671789260923	350.647915119304	1102.001054333246	647.870792136006	264.004866497827	1202.487697305453	593.129441505050	334.125154020143	1234.993779280069	528.394732336884	327.800857304464	1218.333827710201	453.484416964456	315.136226091456	1155.115440837237	323.719928047187	259.713725786152	1240.505913329312	224.180312386338	316.837833671537	963.839557684888	393.055874145387	547.330953617643	879.733113919507	300.368751311393	610.283000343937	903.375477294482	201.517525176973	543.652741749859	748.169176385596	46.298770407937	517.080920873058	921.806318727754	96.222133064544	548.657113071642	832.798412443476	38.235590629799	588.831990614653	1040.893197316215	38.704266819488	575.106126019776	1158.656558473364	42.757573502383	349.375338916248	1236.066592956765	49.586240823800	272.945163564642	1303.985097673971	127.976105095708	297.851604052388	1439.835897879792	100.671637884548	278.168620551769	871.953332085743	1104.510629018268	187.497193392997	818.065795603959	849.723328827474	200.103863322717	1256.550555432711	1135.809080034866	718.362898634708	1438.961726056919	1253.594078567247	597.674268589245	
